<svg width="12" height="12" viewBox="0 0 12 12" fill="none" xmlns="http://www.w3.org/2000/svg">
<g clip-path="url(#clip0_465_1241)">
<path d="M5.56028 0.0133992C10.5992 -0.30837 13.813 5.31319 10.8866 9.47186C8.26097 13.2032 2.57435 12.7095 0.593659 8.61437C-1.23862 4.82611 1.38152 0.280434 5.56028 0.0133992ZM8.12304 3.86578C8.03642 3.88071 7.90621 3.95148 7.83559 4.00566L5.232 6.6152C5.14483 6.6152 4.28028 5.54927 3.95531 5.43261C3.35283 5.21644 2.84911 5.92245 3.26842 6.44215C3.71421 6.99502 4.40166 7.49813 4.87338 8.04547C5.11559 8.1975 5.4538 8.18479 5.66014 7.98078L8.76635 4.85763C9.08193 4.37221 8.70014 3.76571 8.12304 3.86468V3.86578Z" fill="#8AC364"/>
</g>
<defs>
<clipPath id="clip0_465_1241">
<rect width="12" height="12" fill="white"/>
</clipPath>
</defs>
</svg>
