<svg width="74" height="74" viewBox="0 0 74 74" fill="none" xmlns="http://www.w3.org/2000/svg">
<g clip-path="url(#clip0_431_261)">
<path d="M27.33 46.83L30.19 42.17L27.33 38.26H14.27V46.83H27.33Z" fill="#FEB354"/>
<path d="M58.8201 38.26H50.2501L47.3901 42.54L50.2501 46.82H58.8201V38.25V38.26Z" fill="#FF8848"/>
<path d="M27.3301 38.26V46.83H36.5401L39.4001 42.08L36.5401 38.27H27.3301V38.26Z" fill="#EBE5F1"/>
<path d="M36.55 38.26H50.25V46.83H36.55V38.26Z" fill="#CECEE5"/>
<path d="M30.6699 19.49C30.6699 23.04 33.1899 26.01 36.5399 26.69L37.9699 20.73L36.5399 12.29C33.1899 12.97 30.6699 15.94 30.6699 19.49Z" fill="#EBE5F1"/>
<path d="M50.2498 22.56H48.5998V22.42C48.5998 20.13 46.7498 18.28 44.4598 18.28H42.8298C40.4598 18.28 38.5498 16.36 38.5498 14V12.14H38.0298C37.5198 12.14 37.0298 12.19 36.5498 12.29V26.7C37.0298 26.8 37.5198 26.85 38.0298 26.85H40.0398V26.99C40.0398 29.28 41.8898 31.13 44.1798 31.13H54.5398V26.85C54.5398 24.48 52.6198 22.57 50.2598 22.57L50.2498 22.56Z" fill="#CECEE5"/>
<path d="M13.73 59.36C7.64 53.27 4.28 45.16 4.28 36.55C4.28 28.65 7.1 21.18 12.27 15.3L36.55 39.58L37.98 37.02L36.55 33.52L15.3 12.27C21.18 7.11 28.65 4.28 36.55 4.28L37.98 2.14L36.55 0C26.79 0 17.61 3.8 10.71 10.7C3.8 17.61 0 26.78 0 36.55C0 46.32 3.8 55.49 10.7 62.39C17.6 69.29 26.78 73.09 36.54 73.09L37.97 70.95L36.54 68.81C27.92 68.81 19.82 65.45 13.73 59.36Z" fill="#FF4C4C"/>
<path d="M62.39 10.7C55.49 3.8 46.31 0 36.55 0V4.28C45.17 4.28 53.27 7.64 59.36 13.73C65.45 19.82 68.81 27.93 68.81 36.54C68.81 44.44 65.99 51.91 60.82 57.79L36.54 33.51V39.57L57.79 60.82C51.91 65.98 44.44 68.81 36.54 68.81V73.09C46.3 73.09 55.48 69.29 62.38 62.39C69.28 55.49 73.08 46.31 73.08 36.55C73.08 26.79 69.28 17.61 62.38 10.71L62.39 10.7Z" fill="#FF4C4C"/>
</g>
<defs>
<clipPath id="clip0_431_261">
<rect width="73.09" height="73.09" fill="white"/>
</clipPath>
</defs>
</svg>
