<svg width="60" height="77" viewBox="0 0 60 77" fill="none" xmlns="http://www.w3.org/2000/svg">
<g clip-path="url(#clip0_431_234)">
<path d="M41.8979 17.048C46.5737 16.2789 49.7407 11.865 48.9717 7.18924C48.2027 2.51346 43.7888 -0.653578 39.113 0.115463C34.4372 0.884504 31.2702 5.2984 32.0392 9.97419C32.8082 14.65 37.2221 17.817 41.8979 17.048Z" fill="#13C491"/>
<path d="M20.9049 16.9415C25.5173 15.8316 28.3567 11.1927 27.2468 6.58019C26.1369 1.96773 21.498 -0.871653 16.8855 0.238256C12.2731 1.34817 9.43369 5.98707 10.5436 10.5995C11.6535 15.212 16.2924 18.0514 20.9049 16.9415Z" fill="#13C491"/>
<path d="M59.5001 39.53C59.5001 39.53 53.1501 25.76 50.7601 20.59C50.2201 19.41 49.0401 18.66 47.7401 18.66H34.1401C32.8701 18.66 31.7201 19.38 31.1601 20.52C30.8601 21.13 30.5001 21.86 30.1001 22.68C29.7401 21.9 29.4201 21.2 29.1401 20.61C28.6001 19.43 27.4201 18.68 26.1201 18.68H12.5101C11.2401 18.68 10.0901 19.4 9.53006 20.54C7.04006 25.65 0.23006 39.53 0.23006 39.53C-0.32994 40.67 0.15006 42.04 1.31006 42.58C2.44006 43.11 3.79006 42.58 4.33006 41.46L10.4601 28.93V72.01C10.4601 73.2 10.9401 74.27 11.7201 75.05C12.5001 75.83 13.5701 76.31 14.7501 76.31H22.0801V48.93L15.8801 41.54C15.0801 40.59 15.2101 39.17 16.1601 38.37C16.5801 38.02 17.0901 37.84 17.6001 37.84C18.2401 37.84 18.8801 38.11 19.3201 38.64L25.1801 45.62H34.9301L40.7901 38.64C41.5901 37.69 43.0101 37.56 43.9601 38.36C44.9101 39.16 45.0401 40.58 44.2401 41.53L37.6301 49.41V76.29H45.8301C48.2001 76.29 50.1201 74.37 50.1201 72V56.46H56.9901L50.2001 30.17L55.3901 41.42C55.9101 42.55 57.2601 43.05 58.3901 42.52C59.5201 42 60.0201 40.65 59.5001 39.52V39.53ZM29.8501 43.87C25.9001 43.87 22.7001 40.67 22.7001 36.72C22.7001 32.77 25.9001 29.57 29.8501 29.57C33.8001 29.57 37.0001 32.77 37.0001 36.72C37.0001 40.67 33.8001 43.87 29.8501 43.87Z" fill="#13C491"/>
<path d="M30.68 63.97H29.04V76.28H30.68V63.97Z" fill="#13C491"/>
</g>
<defs>
<clipPath id="clip0_431_234">
<rect width="59.71" height="76.3" fill="white"/>
</clipPath>
</defs>
</svg>
