<svg width="69" height="69" viewBox="0 0 69 69" fill="none" xmlns="http://www.w3.org/2000/svg">
<g clip-path="url(#clip0_431_222)">
<path d="M40.1 17.01V23.09C40.1 23.81 39.89 24.51 39.49 25.11L36.26 29.95C35.59 30.95 35.24 32.12 35.24 33.32V52.25C35.24 53.59 36.33 54.68 37.67 54.68H47.39C48.73 54.68 49.82 53.59 49.82 52.25V33.32C49.82 32.12 49.46 30.95 48.8 29.95L45.57 25.11C45.17 24.51 44.96 23.81 44.96 23.09V17.01" fill="#5FAA73"/>
<path d="M40.1 52.25V33.32C40.1 32.12 40.31 30.95 40.7 29.95L42.58 25.11C42.81 24.51 42.94 23.81 42.94 23.09V17.01H40.1V23.09C40.1 23.81 39.89 24.51 39.49 25.11L36.26 29.95C35.59 30.95 35.24 32.12 35.24 33.32V52.25C35.24 53.59 36.33 54.68 37.67 54.68H41.52C40.74 54.68 40.1 53.59 40.1 52.25Z" fill="#4B9173"/>
<path d="M43.74 47.3899H35.23V36.45H43.74C44.41 36.45 44.96 36.9899 44.96 37.6699V46.18C44.96 46.85 44.42 47.4 43.74 47.4V47.3899Z" fill="#FFDC64"/>
<path d="M28.0399 26.73H18.1399C17.5099 26.73 16.9799 27.22 16.9299 27.85L16.3599 35.26C16.0599 39.18 19.1599 42.53 23.0899 42.53C27.0199 42.53 30.1199 39.18 29.8199 35.26L29.2499 27.85C29.1999 27.22 28.6699 26.73 28.0399 26.73Z" fill="#D5DCED"/>
<path d="M44.9599 12.15H40.0999C39.4299 12.15 38.8799 12.69 38.8799 13.37V15.8C38.8799 16.47 39.4199 17.02 40.0999 17.02V21.88H44.9599V17.02C45.6299 17.02 46.1799 16.48 46.1799 15.8V13.37C46.1799 12.7 45.6399 12.16 44.9599 12.16V12.15Z" fill="#466E64"/>
<path d="M42.9299 18.23V21.88H44.9599V17.02H44.1499C43.4799 17.02 42.9299 17.56 42.9299 18.24V18.23Z" fill="#4B9173"/>
<path d="M18.98 32.8101L18.78 35.4501C18.69 36.6601 19.09 37.8201 19.92 38.7201C20.75 39.6101 21.87 40.1101 23.09 40.1101C24.31 40.1101 25.43 39.6201 26.26 38.7201C27.09 37.8301 27.49 36.6701 27.4 35.4501L27.2 32.8101H18.99H18.98Z" fill="#FF5050"/>
<path d="M26.7299 53.46C25.3899 53.46 24.2999 52.37 24.2999 51.03V42.4C24.2999 42.33 24.2599 42.28 24.1999 42.25C22.0299 41.4 20.4899 38.54 20.6699 35.25L21.0799 27.84C21.1199 27.21 21.4999 26.72 21.9499 26.72H18.1299C17.4999 26.72 16.9699 27.21 16.9199 27.84L16.3499 35.25C16.0799 38.76 18.5299 41.8 21.8699 42.4V51.02C21.8699 52.36 20.7799 53.45 19.4399 53.45C18.7699 53.45 18.2199 53.99 18.2199 54.67C18.2199 55.35 18.7599 55.89 19.4399 55.89H26.7299C27.3999 55.89 27.9499 55.35 27.9499 54.67C27.9499 53.99 27.4099 53.45 26.7299 53.45V53.46Z" fill="#C7CFE2"/>
<path d="M18.98 32.8101L18.78 35.4501C18.69 36.6601 19.09 37.8201 19.92 38.7201C20.41 39.2501 21.01 39.6101 21.66 39.8401C20.97 38.5801 20.58 36.9801 20.68 35.2601L20.82 32.8101H18.99H18.98Z" fill="#C84146"/>
<path d="M40.1 36.45H35.24V47.3899H40.1V36.45Z" fill="#FFC850"/>
<path d="M34.02 0C15.26 0 0 15.26 0 34.02C0 52.78 15.26 68.04 34.02 68.04C52.78 68.04 68.04 52.78 68.04 34.02C68.04 15.26 52.78 0 34.02 0ZM4.86 34.02C4.86 26.85 7.46 20.29 11.77 15.2L52.84 56.27C47.76 60.57 41.19 63.18 34.02 63.18C17.94 63.18 4.86 50.1 4.86 34.02ZM56.28 52.84L15.21 11.77C20.29 7.47 26.86 4.86 34.03 4.86C50.11 4.86 63.19 17.94 63.19 34.02C63.19 41.19 60.59 47.75 56.28 52.84Z" fill="#FF5050"/>
</g>
<defs>
<clipPath id="clip0_431_222">
<rect width="68.04" height="68.04" fill="white"/>
</clipPath>
</defs>
</svg>
