<svg width="87" height="89" viewBox="0 0 87 89" fill="none" xmlns="http://www.w3.org/2000/svg">
<g clip-path="url(#clip0_431_245)">
<path d="M83.7401 53.27H2.81007C1.98007 53.27 1.32007 53.94 1.32007 54.76C1.32007 55.58 1.99007 56.25 2.81007 56.25H83.7301C84.5601 56.25 85.2201 55.58 85.2201 54.76C85.2201 53.94 84.5501 53.27 83.7301 53.27H83.7401Z" fill="#37474F"/>
<path d="M43.2701 0C38.3301 0 34.3201 4.02 34.3201 8.95C34.3201 13.38 37.5501 17.07 41.7801 17.78V24.32C41.7801 25.14 42.4501 25.81 43.2701 25.81C44.0901 25.81 44.7601 25.14 44.7601 24.32V16.41C44.7601 15.59 44.0901 14.92 43.2701 14.92C39.9801 14.92 37.3001 12.24 37.3001 8.95C37.3001 5.66 39.9801 2.98 43.2701 2.98C46.5601 2.98 49.2401 5.66 49.2401 8.95C49.2401 9.77 49.9101 10.44 50.7301 10.44C51.5501 10.44 52.2201 9.77 52.2201 8.95C52.2301 4.02 48.2101 0 43.2701 0Z" fill="#37474F"/>
<path d="M61.5601 38.77C60.7301 38.77 60.0701 39.44 60.0701 40.26V71.38C60.0701 72.2 60.7401 72.87 61.5601 72.87C62.3801 72.87 63.0501 72.2 63.0501 71.38V40.26C63.0501 39.44 62.3801 38.77 61.5601 38.77Z" fill="#212121"/>
<path d="M68.62 88.04H54.5V73.35L61.56 67.38L68.62 73.35V88.04Z" fill="#D32E2E"/>
<path d="M58.86 72.78C60.97 71.26 63.75 71.06 66.06 72.26L68.62 73.59V73.36L61.56 67.39L54.5 73.36V88.05H55.99V78.4C55.99 76.18 57.06 74.09 58.87 72.8L58.86 72.78Z" fill="#B72025"/>
<path d="M85.2299 57.75L44.0699 33.5C43.5899 33.21 42.9799 33.21 42.4899 33.5L1.31992 57.75C-1.30008 53.52 0.099916 48.01 4.42992 45.46L37.7399 25.84C41.1499 23.83 45.3799 23.83 48.7899 25.84L82.0999 45.46C86.4399 48.01 87.8299 53.52 85.2099 57.75H85.2299Z" fill="#FAA629"/>
<path d="M4.4401 48.44L37.7501 28.82C41.1601 26.81 45.3901 26.81 48.8001 28.82L82.1101 48.44C84.4901 49.84 85.9801 52.13 86.4101 54.62C87.0201 51.1 85.4301 47.41 82.1101 45.46L48.8001 25.84C45.3901 23.83 41.1601 23.83 37.7501 25.84L4.4401 45.45C1.1201 47.41 -0.469904 51.09 0.140096 54.61C0.570096 52.13 2.0601 49.83 4.4401 48.43V48.44Z" fill="#F78C1E"/>
</g>
<defs>
<clipPath id="clip0_431_245">
<rect width="86.55" height="88.04" fill="white"/>
</clipPath>
</defs>
</svg>
