<svg width="66" height="74" viewBox="0 0 66 74" fill="none" xmlns="http://www.w3.org/2000/svg">
<g clip-path="url(#clip0_431_253)">
<path d="M63.5099 55.39V60.09L50.8199 70.84H30.1799L18.0899 63.42H4.43991L0.909912 58.15C1.74991 51.81 2.97991 47.81 3.83991 45.63C4.46991 44.01 4.80991 42.29 4.80991 40.55V15.83C4.80991 13.19 7.60991 11.5 9.94991 12.71L14.4999 15.07C18.6299 17.22 23.5499 17.22 27.6799 15.07L32.2299 12.71C34.5699 11.49 37.3699 13.19 37.3699 15.83V46.29C37.3699 48.04 37.8599 49.72 38.7499 51.15C39.6299 52.58 40.9099 53.78 42.4699 54.56C44.3599 55.51 46.5099 55.78 48.5699 55.34L59.3599 53.03C60.7699 52.73 62.2199 53.34 62.9999 54.56L63.5199 55.39H63.5099Z" fill="#8CD370"/>
<path d="M13.1499 39.67C13.1499 31.35 15.0399 23.47 18.4199 16.44C17.0699 16.18 15.7499 15.73 14.4999 15.08L9.94991 12.72C7.60991 11.5 4.80991 13.2 4.80991 15.84V40.55C4.80991 42.29 4.47991 44.01 3.83991 45.63C2.98991 47.81 1.74991 51.81 0.909912 58.15L4.43991 63.42H18.0799L18.9099 63.93C15.2199 56.64 13.1399 48.4 13.1399 39.68L13.1499 39.67Z" fill="#6DC847"/>
<path d="M64.6001 62.53L54.0001 71.92C52.7601 73.02 51.1601 73.63 49.5001 73.63H30.6101C28.7901 73.63 27.0501 72.89 25.7701 71.59C24.2601 70.07 21.5201 68.04 16.8701 66.84V71.99C16.8701 72.89 16.1401 73.62 15.2401 73.62H1.6301C0.720102 73.62 -0.00989848 72.88 0.000101525 71.97C0.0601015 66.46 0.420102 61.89 0.920102 58.13C3.9201 58.13 6.9301 58.24 9.8901 58.8C16.9001 60.12 24.9001 62.07 30.0901 67.31C30.2401 67.46 30.4301 67.55 30.6201 67.55H49.5101C49.6801 67.55 49.8501 67.48 49.9801 67.37L63.5101 55.38L65.2301 58.1C66.1301 59.53 65.8701 61.4 64.6001 62.52V62.53Z" fill="#F3E74D"/>
<path d="M42.74 28.48C50.6045 28.48 56.98 22.1045 56.98 14.24C56.98 6.37546 50.6045 0 42.74 0C34.8755 0 28.5 6.37546 28.5 14.24C28.5 22.1045 34.8755 28.48 42.74 28.48Z" fill="#FF6F80"/>
<path d="M39.11 10.62C39.11 6.69 40.3 3.04 42.33 0C34.66 0.21 28.5 6.5 28.5 14.23C28.5 21.96 34.87 28.47 42.74 28.47C44.86 28.47 46.87 28.01 48.67 27.18C42.96 23.87 39.12 17.7 39.12 10.62H39.11Z" fill="#FC5C70"/>
<path d="M46.2 14.24L48.97 11.47C49.93 10.51 49.93 8.96003 48.97 8.00003C48.01 7.04003 46.46 7.04003 45.5 8.00003L42.73 10.77L39.96 8.00003C39 7.04003 37.45 7.04003 36.49 8.00003C35.53 8.96003 35.53 10.51 36.49 11.47L39.26 14.24L36.49 17.01C35.53 17.97 35.53 19.52 36.49 20.48C37.45 21.44 39 21.44 39.96 20.48L42.73 17.71L45.5 20.48C46.46 21.44 48.01 21.44 48.97 20.48C49.93 19.52 49.93 17.97 48.97 17.01L46.2 14.24Z" fill="#EAE9FB"/>
<path d="M17.3401 60.51C14.8401 59.8 12.3101 59.26 9.8901 58.81C6.9301 58.25 3.9201 58.14 0.920102 58.14C0.420102 61.9 0.0601015 66.47 0.000101525 71.98C-0.00989848 72.89 0.720102 73.63 1.6301 73.63H15.2401C16.1401 73.63 16.8701 72.9 16.8701 72V66.85C18.7401 67.33 20.2901 67.95 21.5901 68.61C19.9501 66.05 18.5301 63.35 17.3401 60.52V60.51Z" fill="#EDDA05"/>
</g>
<defs>
<clipPath id="clip0_431_253">
<rect width="65.76" height="73.63" fill="white"/>
</clipPath>
</defs>
</svg>
