<svg width="63" height="63" viewBox="0 0 63 63" fill="none" xmlns="http://www.w3.org/2000/svg">
<g clip-path="url(#clip0_431_239)">
<path d="M45.82 14.35C45.99 14.52 46.13 14.72 46.24 14.93C49.66 8.66999 50.68 3.59999 48.42 1.33999C44.53 -2.55001 33.36 2.16999 20.99 13.36L28.83 21.2C36.83 14.29 43.36 11.88 45.82 14.34V14.35Z" fill="#FF8910"/>
<path d="M14.9599 46.19C14.7399 46.08 14.5499 45.94 14.3799 45.77C11.9199 43.31 14.1199 37 21.0299 29.01L13.1899 21.17C1.98992 33.55 -2.52008 44.48 1.36992 48.37C3.61992 50.62 8.68992 49.6 14.9599 46.19Z" fill="#FF8910"/>
<path d="M47.74 40.57C47.74 44.63 44.45 47.93 40.38 47.93C36.31 47.93 33.02 44.64 33.02 40.57C33.02 36.5 36.31 33.21 40.38 33.21C44.45 33.21 47.74 36.5 47.74 40.57Z" fill="#FF8910"/>
<path d="M51.3201 39.56C61.2301 27.96 65.0801 18.01 61.4301 14.35L53.2001 6.12C52.5101 13.01 47.8701 21.12 40.5601 29.55C43.3301 29.59 46.0801 30.65 48.1901 32.76C50.0801 34.65 51.0901 37.08 51.3201 39.56ZM53.6201 16.95L56.2201 19.55L53.6201 22.15L51.0201 19.55L53.6201 16.95ZM51.0201 24.75L53.6201 27.35L51.0201 29.95L48.4201 27.35L51.0201 24.75Z" fill="#FF8910"/>
<path d="M14.3799 61.38C18.0399 65.04 27.7799 61.42 39.3799 51.51C36.8999 51.28 34.4799 50.27 32.5899 48.38C30.4799 46.27 29.4199 43.52 29.3799 40.75C20.9499 48.06 13.0399 52.47 6.15991 53.16L14.3899 61.39L14.3799 61.38ZM27.3799 48.37L29.9799 50.97L27.3799 53.57L24.7799 50.97L27.3799 48.37ZM19.5799 50.97L22.1799 53.57L19.5799 56.17L16.9799 53.57L19.5799 50.97Z" fill="#FF8910"/>
</g>
<defs>
<clipPath id="clip0_431_239">
<rect width="62.78" height="62.77" fill="white"/>
</clipPath>
</defs>
</svg>
