<svg width="86" height="98" viewBox="0 0 86 98" fill="none" xmlns="http://www.w3.org/2000/svg">
<g clip-path="url(#clip0_431_344)">
<path d="M6.12 0H58.14L85.71 27.46V91.83C85.71 95.21 82.97 97.95 79.59 97.95H6.12C2.74 97.95 0 95.21 0 91.83V6.12C0 2.74 2.74 0 6.12 0Z" fill="#E2574C"/>
<path d="M85.6199 27.5501H64.2799C60.8999 27.5501 58.1599 24.8101 58.1599 21.4301V0.0600586L85.6199 27.5501Z" fill="#B53629"/>
<path d="M62.75 46.42C63.78 46.42 64.28 45.53 64.28 44.66C64.28 43.79 63.76 42.9 62.75 42.9H56.91C55.77 42.9 55.13 43.85 55.13 44.89V59.24C55.13 60.52 55.86 61.23 56.84 61.23C57.82 61.23 58.55 60.52 58.55 59.24V55.3H62.08C63.18 55.3 63.72 54.4 63.72 53.51C63.72 52.62 63.17 51.77 62.08 51.77H58.55V46.42H62.74H62.75ZM43.01 42.89H38.74C37.58 42.89 36.76 43.69 36.76 44.87V59.25C36.76 60.72 37.94 61.18 38.79 61.18H43.27C48.58 61.18 52.08 57.69 52.08 52.3C52.08 46.6 48.78 42.9 43.01 42.9V42.89ZM43.21 57.63H40.6V46.44H42.95C46.5 46.44 48.05 48.82 48.05 52.12C48.05 55.2 46.53 57.64 43.21 57.64V57.63ZM27.56 42.89H23.33C22.13 42.89 21.47 43.68 21.47 44.88V59.23C21.47 60.51 22.24 61.22 23.26 61.22C24.28 61.22 25.05 60.51 25.05 59.23V55.04H27.7C30.98 55.04 33.68 52.72 33.68 48.99C33.68 45.34 31.07 42.89 27.56 42.89ZM27.49 51.68H25.05V46.26H27.49C29 46.26 29.95 47.44 29.95 48.97C29.95 50.5 28.99 51.68 27.49 51.68Z" fill="white"/>
</g>
<defs>
<clipPath id="clip0_431_344">
<rect width="85.71" height="97.96" fill="white"/>
</clipPath>
</defs>
</svg>
