<svg width="101" height="105" viewBox="0 0 101 105" fill="none" xmlns="http://www.w3.org/2000/svg">
<g clip-path="url(#clip0_431_343)">
<path d="M78.4701 55.41C78.1701 55.59 77.8201 55.69 77.4701 55.69C77.1201 55.69 76.7701 55.59 76.4701 55.41C63.2601 47.33 55.0701 39.13 55.0701 23.27V16.87H10.9101C10.3301 16.87 9.8501 17.34 9.8501 17.93V78.08H34.7601C35.8101 78.08 36.6701 78.93 36.6701 79.99V96.67H80.4001C80.9801 96.67 81.4601 96.2 81.4601 95.61V53.52C80.4901 54.16 79.4901 54.79 78.4601 55.42L78.4701 55.41Z" fill="#DFF6FD"/>
<path d="M18.7401 78.08V17.93C18.7401 17.35 19.2101 16.87 19.8001 16.87H10.9101C10.3301 16.87 9.8501 17.34 9.8501 17.93V78.08H18.7401Z" fill="#C8EFFE"/>
<path d="M55.62 29.92H27.25C26.4 29.92 25.71 30.61 25.71 31.46C25.71 32.31 26.4 33 27.25 33H56.31C56.03 32.01 55.8 30.99 55.62 29.93V29.92Z" fill="#62DBFB"/>
<path d="M58.02 37.5901H27.25C26.4 37.5901 25.71 38.2801 25.71 39.1301C25.71 39.9801 26.4 40.6701 27.25 40.6701H59.73C59.1 39.6901 58.53 38.6601 58.03 37.6001L58.02 37.5901Z" fill="#62DBFB"/>
<path d="M63.3099 45.26H42.6399C41.7899 45.26 41.0999 45.95 41.0999 46.8C41.0999 47.65 41.7899 48.34 42.6399 48.34H64.0699C64.6999 48.34 65.2399 47.96 65.4799 47.42C64.7199 46.72 63.9999 46 63.3099 45.27V45.26Z" fill="#62DBFB"/>
<path d="M36.32 48.34H27.25C26.4 48.34 25.71 47.65 25.71 46.8C25.71 45.95 26.4 45.26 27.25 45.26H36.32C37.17 45.26 37.86 45.95 37.86 46.8C37.86 47.65 37.17 48.34 36.32 48.34Z" fill="#62DBFB"/>
<path d="M64.07 56.0101H27.25C26.4 56.0101 25.71 55.3201 25.71 54.4701C25.71 53.6201 26.4 52.9301 27.25 52.9301H64.08C64.93 52.9301 65.62 53.6201 65.62 54.4701C65.62 55.3201 64.93 56.0101 64.08 56.0101H64.07Z" fill="#01D0FB"/>
<path d="M64.07 63.6801H54.25C53.4 63.6801 52.71 62.9901 52.71 62.1401C52.71 61.2901 53.4 60.6001 54.25 60.6001H64.07C64.92 60.6001 65.61 61.2901 65.61 62.1401C65.61 62.9901 64.92 63.6801 64.07 63.6801Z" fill="#01D0FB"/>
<path d="M48.56 60.6101H28.01C28.87 61.5201 29.6 62.5601 30.17 63.6801H48.56C49.41 63.6801 50.1 62.9901 50.1 62.1401C50.1 61.2901 49.41 60.6001 48.56 60.6001V60.6101Z" fill="#01D0FB"/>
<path d="M64.07 68.28H31.52C31.56 68.72 31.59 69.16 31.59 69.62V71.36H64.08C64.93 71.36 65.62 70.67 65.62 69.82C65.62 68.97 64.93 68.28 64.08 68.28H64.07Z" fill="#01D0FB"/>
<path d="M64.0698 75.9501H31.5898V78.0801H34.7698C35.4698 78.0801 36.0798 78.4601 36.4098 79.0201H64.0798C64.9298 79.0201 65.6198 78.3301 65.6198 77.4801C65.6198 76.6301 64.9298 75.9401 64.0798 75.9401L64.0698 75.9501Z" fill="#01D0FB"/>
<path d="M56.0301 10.46C55.3101 10.82 54.8601 11.55 54.8601 12.35V23.28C54.8601 39.44 63.4401 47.69 76.3601 55.59C77.0401 56 77.8901 56 78.5701 55.59C91.4801 47.69 100.07 39.43 100.07 23.28V12.35C100.07 11.55 99.6201 10.82 98.9001 10.46L78.4101 0.219995C77.8201 -0.0800049 77.1201 -0.0800049 76.5201 0.219995L56.0301 10.46Z" fill="#FAC600"/>
<path d="M62.4501 19.8V7.25L56.0301 10.46C55.3101 10.82 54.8601 11.55 54.8601 12.35V23.28C54.8601 39.44 63.4401 47.69 76.3601 55.59C77.0401 56 77.8901 56 78.5701 55.59C80.4501 54.44 82.2401 53.28 83.9201 52.09C71.0201 44.19 62.4501 35.94 62.4501 19.79V19.8Z" fill="#E8B800"/>
<path d="M77.3702 39.88C85.3452 39.88 91.8102 33.415 91.8102 25.44C91.8102 17.465 85.3452 11 77.3702 11C69.3952 11 62.9302 17.465 62.9302 25.44C62.9302 33.415 69.3952 39.88 77.3702 39.88Z" fill="#4FC123"/>
<path d="M69.0602 25.44C69.0602 18.52 73.9302 12.74 80.4402 11.33C79.4502 11.12 78.4302 11 77.3802 11C69.4102 11 62.9402 17.46 62.9402 25.44C62.9402 33.42 69.4002 39.88 77.3802 39.88C78.4302 39.88 79.4502 39.76 80.4402 39.55C73.9402 38.15 69.0602 32.36 69.0602 25.44Z" fill="#47A920"/>
<path d="M76.6301 31.1199C76.2401 31.1199 75.8401 30.9699 75.5401 30.6699L70.7901 25.9199C70.1901 25.3199 70.1901 24.3499 70.7901 23.7499C71.3901 23.1499 72.3601 23.1499 72.9601 23.7499L76.6201 27.4099L82.8901 21.1399C83.4901 20.5399 84.4601 20.5399 85.0601 21.1399C85.6601 21.7399 85.6601 22.7099 85.0601 23.3099L77.7001 30.6699C77.4001 30.9699 77.0101 31.1199 76.6101 31.1199H76.6301Z" fill="white"/>
<path d="M11.4201 78.08V69.61C11.4201 65.74 14.5701 62.59 18.4401 62.59C22.3101 62.59 25.4601 65.74 25.4601 69.61V78.08H31.7901V69.61C31.7901 62.24 25.8101 56.26 18.4401 56.26C11.0701 56.26 5.09009 62.24 5.09009 69.61V78.08H11.4201Z" fill="#3675BB"/>
<path d="M8.66008 78.08V69.61C8.66008 62.84 13.7001 57.26 20.2201 56.38C19.6301 56.3 19.0401 56.26 18.4301 56.26C11.0601 56.26 5.08008 62.24 5.08008 69.61V78.08H8.66008Z" fill="#2263AA"/>
<path d="M34.77 104.9H2.11C0.94 104.9 0 103.96 0 102.79V79.99C0 78.82 0.94 77.88 2.11 77.88H34.77C35.94 77.88 36.88 78.82 36.88 79.99V102.79C36.88 103.96 35.93 104.9 34.77 104.9Z" fill="#FAC600"/>
<path d="M8.88 102.79V79.99C8.88 78.82 9.82 77.88 10.99 77.88H2.11C0.94 77.88 0 78.82 0 79.99V102.79C0 103.96 0.94 104.9 2.11 104.9H10.99C9.82 104.9 8.88 103.96 8.88 102.79Z" fill="#E8B800"/>
</g>
<defs>
<clipPath id="clip0_431_343">
<rect width="100.07" height="104.9" fill="white"/>
</clipPath>
</defs>
</svg>
